<svg xmlns="http://www.w3.org/2000/svg" width="1000" height="600"><rect width="100%" height="100%" fill="white"/><style>text{font-family:Arial,Helvetica,sans-serif;fill:#222}.title{font-size:28px;font-weight:600}.sub{font-size:16px;fill:#666}.axis{stroke:#333}.grid{stroke:#e6e6e6}.s1{stroke:#1f77b4;fill:none;stroke-width:3}.s2{stroke:#ff7f0e;fill:none;stroke-width:3}.p1{fill:#1f77b4}.p2{fill:#ff7f0e}.small{font-size:14px;fill:#555}.mono{font-family:Consolas,monospace;font-size:16px}</style><text x="40" y="50" class="title">Synthetic L2 snapshot used for the reproducibility demo</text><text x="40" y="78" class="sub">Event 4,200 from the deterministic synthetic constructor</text><line x1="95" y1="505" x2="940" y2="505" class="axis"/><line x1="95" y1="120" x2="95" y2="505" class="axis"/><line x1="95" y1="505" x2="940" y2="505" class="grid"/><text x="83" y="510" text-anchor="end" class="small">0</text><line x1="95" y1="408.75" x2="940" y2="408.75" class="grid"/><text x="83" y="413.75" text-anchor="end" class="small">10</text><line x1="95" y1="312.5" x2="940" y2="312.5" class="grid"/><text x="83" y="317.5" text-anchor="end" class="small">20</text><line x1="95" y1="216.25" x2="940" y2="216.25" class="grid"/><text x="83" y="221.25" text-anchor="end" class="small">30</text><line x1="95" y1="120" x2="940" y2="120" class="grid"/><text x="83" y="125" text-anchor="end" class="small">40</text><polyline points="429.79336803926697,156.36175028989993 394.5850347059149,261.1918588460883 359.3767013725628,231.22913799952107 324.1683680392607,256.1364148707211 288.96003470590864,299.55110102015067 253.75170137255654,337.8741222027584 218.5433680392545,369.041154467812 183.3350347059024,360.849431133472 148.12670137260034,372.2498360583765 112.91836803924822,381.322421100922" class="s1"/><polyline points="590.6607963651663,307.13991797702386 625.8691296985185,325.14982997036964 661.0774630318705,310.85361115473825 696.2857963651726,344.1023756067855 731.4941296985246,387.80990392789283 766.7024630318767,354.2975280237447 801.9107963651788,409.9079729063432 837.1191296985309,385.63768843572797 872.327463031833,428.3365449409352 907.5357963651851,438.5407364294937" class="s2"/><circle cx="429.79336803926697" cy="156.36175028989993" r="5.5" class="p1"/><circle cx="394.5850347059149" cy="261.1918588460883" r="5.5" class="p1"/><circle cx="359.3767013725628" cy="231.22913799952107" r="5.5" class="p1"/><circle cx="324.1683680392607" cy="256.1364148707211" r="5.5" class="p1"/><circle cx="288.96003470590864" cy="299.55110102015067" r="5.5" class="p1"/><circle cx="253.75170137255654" cy="337.8741222027584" r="5.5" class="p1"/><circle cx="218.5433680392545" cy="369.041154467812" r="5.5" class="p1"/><circle cx="183.3350347059024" cy="360.849431133472" r="5.5" class="p1"/><circle cx="148.12670137260034" cy="372.2498360583765" r="5.5" class="p1"/><circle cx="112.91836803924822" cy="381.322421100922" r="5.5" class="p1"/><circle cx="590.6607963651663" cy="307.13991797702386" r="5.5" class="p2"/><circle cx="625.8691296985185" cy="325.14982997036964" r="5.5" class="p2"/><circle cx="661.0774630318705" cy="310.85361115473825" r="5.5" class="p2"/><circle cx="696.2857963651726" cy="344.1023756067855" r="5.5" class="p2"/><circle cx="731.4941296985246" cy="387.80990392789283" r="5.5" class="p2"/><circle cx="766.7024630318767" cy="354.2975280237447" r="5.5" class="p2"/><circle cx="801.9107963651788" cy="409.9079729063432" r="5.5" class="p2"/><circle cx="837.1191296985309" cy="385.63768843572797" r="5.5" class="p2"/><circle cx="872.327463031833" cy="428.3365449409352" r="5.5" class="p2"/><circle cx="907.5357963651851" cy="438.5407364294937" r="5.5" class="p2"/><line x1="510.22708220221665" y1="120" x2="510.22708220221665" y2="505" stroke="#555" stroke-width="2" stroke-dasharray="8 6"/><text x="518.2270822022167" y="140" class="small">mid 100.39793</text><text x="517.5" y="560" text-anchor="middle" class="small">Price</text><text x="24" y="312.5" transform="rotate(-90 24 312.5)" text-anchor="middle" class="small">Displayed size</text><circle cx="745" cy="145" r="6" class="p1"/><text x="760" y="150" class="small">Bid depth</text><circle cx="845" cy="145" r="6" class="p2"/><text x="860" y="150" class="small">Ask depth</text></svg>