<svg xmlns="http://www.w3.org/2000/svg" width="1000" height="600">
<rect width="100%" height="100%" fill="white"/>
<style>text{font-family:Arial,Helvetica,sans-serif;fill:#222}.title{font-size:28px;font-weight:600}.sub{font-size:16px;fill:#666}.axis{stroke:#333}.grid{stroke:#e6e6e6}.small{font-size:14px;fill:#555}</style>
<text x="40" y="50" class="title">Synthetic holdout: information coefficient</text>
<text x="40" y="78" class="sub">Measured current integration run; same chronological split and 20-row purge</text>
<line x1="120" y1="500" x2="940" y2="500" class="axis"/><line x1="120" y1="125" x2="120" y2="500" class="axis"/>
<line x1="120" y1="375" x2="940" y2="375" class="grid"/><line x1="120" y1="250" x2="940" y2="250" class="grid"/><line x1="120" y1="125" x2="940" y2="125" class="grid"/>
<text x="108" y="505" text-anchor="end" class="small">0.00</text><text x="108" y="380" text-anchor="end" class="small">0.05</text><text x="108" y="255" text-anchor="end" class="small">0.10</text><text x="108" y="130" text-anchor="end" class="small">0.15</text>
<rect x="155" y="172" width="115" height="328" fill="#1f77b4"/><rect x="345" y="245" width="115" height="255" fill="#1f77b4"/><rect x="555" y="208" width="115" height="292" fill="#ff7f0e"/><rect x="745" y="238" width="115" height="262" fill="#ff7f0e"/>
<text x="212" y="525" text-anchor="middle" class="small">Focal Pearson IC</text><text x="402" y="525" text-anchor="middle" class="small">Focal Rank IC</text><text x="612" y="525" text-anchor="middle" class="small">Log-loss Pearson IC</text><text x="802" y="525" text-anchor="middle" class="small">Log-loss Rank IC</text>
<text x="212" y="158" text-anchor="middle" class="small">0.131209</text><text x="402" y="231" text-anchor="middle" class="small">0.101913</text><text x="612" y="194" text-anchor="middle" class="small">0.116689</text><text x="802" y="224" text-anchor="middle" class="small">0.104940</text>
<text x="505" y="575" text-anchor="middle" class="small">Current synthetic validation is engineering evidence, not market-data performance</text>
</svg>